<?xml version="1.0" standalone="no"?><!DOCTYPE svg PUBLIC "-//W3C//DTD SVG 1.1//EN" "http://www.w3.org/Graphics/SVG/1.1/DTD/svg11.dtd"><svg t="1615117397393" class="icon" viewBox="0 0 1024 1024" version="1.1" xmlns="http://www.w3.org/2000/svg" p-id="2102" xmlns:xlink="http://www.w3.org/1999/xlink" width="200" height="200"><defs><style type="text/css"></style></defs><path d="M926.429394 129.158212s-140.389361-8.142583-205.530025-20.777625c-35.378119-6.738689-137.862353-64.579106-194.018097-99.114889L512 0l-14.881272 9.265698c-37.624349 23.304634-154.147519 91.533863-194.018097 99.114889C236.556073 121.296408 98.693721 129.158212 98.693721 129.158212l-28.077872 1.684673v465.8119c0 5.334796 2.527009 130.562106 153.024403 273.759254a719.635865 719.635865 0 0 0 276.005484 151.339731H517.896353l6.457911-1.403893A719.916644 719.916644 0 0 0 800.640526 870.414039c151.058953-144.039485 152.743625-268.705237 152.743625-274.040033V130.842885z m-29.762545 467.215794s-3.088566 106.976693-135.335344 233.046339a686.784755 686.784755 0 0 1-248.769948 137.581574h-1.403893a687.627091 687.627091 0 0 1-248.489169-137.581574C131.544831 704.473814 126.771593 597.497121 126.771593 596.654785V184.190842c42.678366-2.807787 133.369893-9.827255 186.437072-20.216068 48.013162-9.265698 151.901289-69.633123 198.229778-97.430217 46.328489 28.077872 150.216616 88.445298 198.229777 97.430217 53.067179 10.108034 143.758706 17.127502 186.437072 20.216068z" p-id="2103" fill="#889AA4"></path><path d="M306.469975 416.956403A28.077872 28.077872 0 1 0 267.160954 457.10776l201.318344 201.879901 308.856595-280.778722A28.077872 28.077872 0 0 0 737.746093 336.934467l-268.14368 243.996709z" p-id="2104" fill="#889AA4"></path></svg>